<?xml version="1.0" encoding="utf-8"?>
<!-- Generator: Adobe Illustrator 19.2.1, SVG Export Plug-In . SVG Version: 6.00 Build 0)  -->
<svg version="1.1" id="Layer_1" xmlns="http://www.w3.org/2000/svg" xmlns:xlink="http://www.w3.org/1999/xlink" x="0px" y="0px"
	 viewBox="0 0 24 26" style="enable-background:new 0 0 24 26;" xml:space="preserve">
<style type="text/css">
	.st0{fill:#959595;}
	.st1{fill:#FFFFFF;}
</style>
<path class="st0" d="M14,6V4h-4v2H14z M20,6c1.1,0,2,0.9,2,2v11c0,1.1-0.8,2-2,2H4c-1.1,0-2-0.9-2-2V8c0-1.1,0.8-2,2-2h4V4
	c0-1.1,0.8-2,2-2h4c1.1,0,2,0.8,2,2v2H20z"/>
<path class="st1" d="M6.3,16l10.6-6.9C17.1,9,17.3,8.9,17.5,9s0.3,0.1,0.4,0.3C18,9.5,18,9.6,18,9.8c0,0.2-0.1,0.3-0.3,0.4L7.1,17.2
	c-0.2,0.1-0.3,0.1-0.5,0.1S6.2,17.2,6.1,17C6,16.8,6,16.7,6,16.5C6,16.3,6.1,16.1,6.3,16z"/>
</svg>
