<?xml version="1.0" encoding="utf-8"?>
<!-- Generator: Adobe Illustrator 16.2.1, SVG Export Plug-In . SVG Version: 6.00 Build 0)  -->
<!DOCTYPE svg PUBLIC "-//W3C//DTD SVG 1.1//EN" "http://www.w3.org/Graphics/SVG/1.1/DTD/svg11.dtd">
<svg version="1.1" id="Layer_1" xmlns="http://www.w3.org/2000/svg" xmlns:xlink="http://www.w3.org/1999/xlink" x="0px" y="0px"
	 width="16px" height="16px" viewBox="0 0 16 16" enable-background="new 0 0 16 16" xml:space="preserve">
<path fill="#ED0087" d="M8,3C3.908,3,1.155,6.349,0.291,7.565c-0.185,0.26-0.185,0.609,0,0.869C1.155,9.65,3.907,13,8,13
	s6.845-3.35,7.709-4.565c0.186-0.261,0.186-0.609,0-0.869C14.845,6.349,12.092,3,8,3z M8,12c-2.209,0-4-1.79-4-4s1.791-4,4-4
	c2.211,0,4,1.79,4,4S10.211,12,8,12z M10,8c0,1.104-0.896,2-2,2c-1.104,0-2-0.896-2-2c0-1.104,0.896-2,2-2C9.104,6,10,6.896,10,8z"
	/>
</svg>
