<?xml version="1.0" encoding="utf-8"?>
<!-- Generator: Adobe Illustrator 16.2.1, SVG Export Plug-In . SVG Version: 6.00 Build 0)  -->
<!DOCTYPE svg PUBLIC "-//W3C//DTD SVG 1.1//EN" "http://www.w3.org/Graphics/SVG/1.1/DTD/svg11.dtd">
<svg version="1.1" id="Layer_1" xmlns="http://www.w3.org/2000/svg" xmlns:xlink="http://www.w3.org/1999/xlink" x="0px" y="0px"
	 width="32px" height="32px" viewBox="0 0 32 32" enable-background="new 0 0 32 32" xml:space="preserve">
<path fill="#B4B4B4" d="M26.187,14.187h-6.625l-7.499-9.813H9.624l4.375,9.813h-2.375c-0.938,0-1.812,0.063-2.938,0.313
	l-1.375,0.313l-3.125-3.188h-1.25L4.187,16l-1.25,4.375h1.188l3.125-3.188C8.062,17.312,8.688,17.5,8.688,17.5
	c1.125,0.25,2,0.312,2.938,0.312h2.438l-4.375,9.813h2.438l7.5-9.813h6.562c1.438,0,2.875-0.812,2.875-1.812
	s-1.438-1.813-2.875-1.813H26.187z"/>
</svg>
