<?xml version="1.0" encoding="utf-8"?>
<!-- Generator: Adobe Illustrator 16.2.1, SVG Export Plug-In . SVG Version: 6.00 Build 0)  -->
<!DOCTYPE svg PUBLIC "-//W3C//DTD SVG 1.1//EN" "http://www.w3.org/Graphics/SVG/1.1/DTD/svg11.dtd">
<svg version="1.1" id="Layer_1" xmlns="http://www.w3.org/2000/svg" xmlns:xlink="http://www.w3.org/1999/xlink" x="0px" y="0px"
	 width="32px" height="32px" viewBox="0 0 32 32" enable-background="new 0 0 32 32" xml:space="preserve">
<path fill="#B4B4B4" d="M5.812,14.187C4.374,14.187,2.937,15,2.937,16s1.437,1.812,2.875,1.812h6.562l7.5,9.813h2.438l-4.375-9.813
	h2.438c0.938,0,1.812-0.062,2.938-0.312c0,0,0.625-0.188,1.438-0.312l3.125,3.188h1.188L27.813,16l1.25-4.375h-1.25l-3.125,3.188
	L23.313,14.5c-1.125-0.25-2-0.313-2.938-0.313h-2.375l4.375-9.813h-2.438l-7.499,9.813H5.813H5.812z"/>
</svg>
